<?xml version="1.0" encoding="iso-8859-1"?>
<!-- Generator: Adobe Illustrator 19.0.0, SVG Export Plug-In . SVG Version: 6.00 Build 0)  -->
<svg version="1.1" id="Layer_1" xmlns="http://www.w3.org/2000/svg" xmlns:xlink="http://www.w3.org/1999/xlink" x="0px" y="0px"
	 viewBox="0 0 512 512" style="enable-background:new 0 0 512 512;" xml:space="preserve">
<circle style="fill:#FFEDB5;" cx="256" cy="256" r="256"/>
<path style="fill:#FFC61B;" d="M132.61,373.905L270.239,511.6c130.045-7.132,234.227-111.314,241.359-241.357l-128.64-128.297
	L132.61,373.905z"/>
<circle style="fill:#D48B07;" cx="256" cy="256" r="170.667"/>
<path style="fill:#AA6B07;" d="M256,85.333c-0.191,0-0.383,0.007-0.574,0.007v341.32c0.191,0,0.383,0.007,0.574,0.007
	c94.256,0,170.667-76.41,170.667-170.667S350.256,85.333,256,85.333z"/>
<path style="fill:#473211;" d="M392.945,154.141c-4.191-5.625-8.72-10.985-13.557-16.046
	c-41.562,20.852-68.837,61.53-72.232,108.041h-40.813V85.654c-3.422-0.205-6.87-0.321-10.343-0.321
	c-3.474,0-6.921,0.117-10.343,0.321v160.482h-40.813c-3.396-46.511-30.67-87.187-72.232-108.041
	c-4.837,5.061-9.366,10.419-13.557,16.046c37.174,16.703,61.905,51.659,65.395,91.994H85.625c-0.186,3.265-0.291,6.553-0.291,9.864
	c0,3.312,0.105,6.599,0.291,9.864h98.825c-3.489,40.336-28.22,75.293-65.395,91.994c4.191,5.625,8.72,10.985,13.557,16.046
	c41.562-20.852,68.837-61.53,72.232-108.041h40.813v160.482c3.422,0.205,6.87,0.321,10.343,0.321c3.474,0,6.921-0.117,10.343-0.321
	V265.864h40.813c3.396,46.511,30.67,87.187,72.232,108.041c4.837-5.061,9.366-10.419,13.557-16.046
	c-37.174-16.701-61.905-51.659-65.395-91.994h98.825c0.186-3.265,0.291-6.553,0.291-9.864c0-3.312-0.105-6.599-0.291-9.864h-98.825
	C331.04,205.8,355.773,170.842,392.945,154.141z"/>
<path style="fill:#33220B;" d="M426.667,256c0-3.312-0.105-6.599-0.291-9.864h-98.825c3.489-40.336,28.22-75.292,65.395-91.994
	c-4.191-5.625-8.72-10.985-13.557-16.046c-41.562,20.852-68.837,61.53-72.232,108.041h-40.813V85.654
	c-3.422-0.205-6.87-0.321-10.343-0.321c-0.191,0-0.383,0.009-0.574,0.009v341.314c0.191,0,0.383,0.009,0.574,0.009
	c3.474,0,6.921-0.117,10.343-0.321V265.862h40.813c3.396,46.511,30.67,87.187,72.232,108.041
	c4.837-5.061,9.366-10.419,13.557-16.046c-37.174-16.701-61.905-51.659-65.395-91.994h98.825
	C426.561,262.599,426.667,259.312,426.667,256z"/>
<g>
</g>
<g>
</g>
<g>
</g>
<g>
</g>
<g>
</g>
<g>
</g>
<g>
</g>
<g>
</g>
<g>
</g>
<g>
</g>
<g>
</g>
<g>
</g>
<g>
</g>
<g>
</g>
<g>
</g>
</svg>
